<svg width="42" height="52" viewBox="0 0 42 52" fill="none" xmlns="http://www.w3.org/2000/svg">
<path d="M39.7 17.791C39.4 17.991 34.3 20.991 34.3 27.491C34.3 33.991 40.9 37.691 41.1 37.791C41.1 37.991 40.1 41.491 37.6 44.991C35.4 48.091 33.2 51.291 29.8 51.291C26.4 51.291 25.5 49.291 21.5 49.291C17.5 49.291 16.3 51.391 13.1 51.391C9.9 51.391 7.8 48.491 5.3 44.891C2.4 40.691 0 34.191 0 27.991C0 18.091 6.4 12.791 12.6 12.791C18.8 12.791 18.7 14.991 20.8 14.991C22.9 14.991 25.9 12.691 29.7 12.691C33.5 12.691 36.3 12.791 39.7 17.791ZM27.9 8.49099C29.5 6.59099 30.6 3.99099 30.6 1.39099C30.6 -1.20901 30.6 0.690991 30.6 0.390991C28.1 0.390991 25 2.09099 23.2 4.29099C21.8 5.99099 20.4 8.59099 20.4 11.191C20.4 13.791 20.4 11.991 20.4 12.091C20.6 12.091 20.8 12.091 21.1 12.091C23.4 12.091 26.3 10.491 27.9 8.49099Z" fill="black"/>
</svg>
