<svg width="93" height="35" viewBox="0 0 93 35" fill="none" xmlns="http://www.w3.org/2000/svg">
<path d="M45.4889 0C50.7889 0 54.9889 0.2 59.5889 1C64.5889 1.8 69.1889 3 72.8889 5.1C73.1889 5.3 73.3889 5.4 73.6889 5.6C75.1889 6.5 76.9889 8 77.2889 10C77.5889 11.6 76.7889 12.9 75.9889 13.9C75.1889 14.9 74.0889 15.6 72.9889 16.3C68.4889 18.9 62.4889 20.3 56.2889 21C53.3889 21.3 50.3889 21.6 46.7889 21.6C43.1889 21.6 40.2889 21.5 37.3889 21.2C31.3889 20.6 25.0889 19.4 20.3889 17C19.1889 16.4 18.0889 15.8 17.0889 14.9C16.1889 14.1 15.2889 13 14.9889 11.6C14.5889 9.2 16.2889 7.5 17.6889 6.4C19.1889 5.3 21.0889 4.3 22.9889 3.6C26.7889 2.2 31.4889 1.2 36.0889 0.7C39.1889 0.3 41.8889 0.1 45.4889 0.1V0ZM45.5889 2.1C41.3889 2.1 37.4889 2.9 34.0889 4.1C32.3889 4.7 30.8889 5.5 29.5889 6.6C28.3889 7.6 27.0889 9.1 27.3889 11.3C27.6889 13.1 29.0889 14.5 30.3889 15.3C31.7889 16.3 33.4889 17 35.1889 17.6C38.8889 18.8 42.9889 19.3 47.1889 19.2C51.1889 19.2 55.3889 18.5 58.7889 17.2C60.3889 16.6 61.9889 15.8 63.2889 14.7C64.4889 13.7 65.6889 12.1 65.3889 10.1C65.0889 8.3 63.6889 7 62.3889 6.1C60.8889 5.1 59.3889 4.4 57.5889 3.8C54.8889 2.9 51.8889 2.4 48.9889 2.2C48.0889 2.2 46.8889 2.1 45.7889 2.2L45.5889 2.1ZM4.28889 25.6C6.08889 25.6 7.58889 25.6 9.08889 25.9C9.58889 25.9 10.0889 26.2 10.2889 26.5C10.4889 26.8 10.2889 27.4 10.2889 28.2V32.7C10.2889 33 10.2889 33.4 10.2889 33.6C10.0889 34.2 8.78889 34.4 8.08889 34.5C6.28889 34.7 4.18889 34.7 2.38889 34.5C1.68889 34.5 0.388889 34.3 0.0888889 33.7C-0.111111 33.3 0.0888889 32.5 0.0888889 32V28.4C0.0888889 27.8 0.0888896 26.9 0.28889 26.5C0.58889 26.1 1.38889 25.9 2.08889 25.8C2.88889 25.7 3.48889 25.6 4.28889 25.6ZM4.08889 26.7C4.08889 26.8 4.08889 27.3 4.08889 27.5V31.8C4.08889 32.3 4.08889 33.2 4.08889 33.5C4.28889 33.8 4.68889 33.8 5.18889 33.8C5.58889 33.8 6.08889 33.8 6.28889 33.5C6.48889 33.2 6.28889 32.4 6.28889 31.9V28.5C6.28889 28.1 6.28889 27.1 6.28889 26.8C6.18889 26.4 5.18889 26.5 4.88889 26.5C4.68889 26.5 4.18889 26.5 4.08889 26.8V26.7ZM19.5889 25.7C21.1889 25.7 22.9889 25.7 24.5889 25.7C25.6889 28.6 26.8889 31.5 27.9889 34.5H23.4889C23.2889 33.8 22.9889 33 22.7889 32.3C21.9889 32.3 20.9889 32.3 20.0889 32.3C19.8889 33 19.6889 33.7 19.4889 34.5H16.3889C17.1889 32.3 17.9889 30.1 18.7889 27.9C19.0889 27.2 19.3889 26.3 19.5889 25.7ZM20.3889 31.3C21.0889 31.3 21.8889 31.3 22.5889 31.3C22.1889 30.1 21.7889 29 21.3889 27.9C21.0889 29.1 20.6889 30.2 20.3889 31.3ZM38.9889 29.2C39.8889 28.2 40.8889 27.1 41.8889 26.1C41.9889 26 42.1889 25.7 42.2889 25.7C42.4889 25.7 42.9889 25.7 43.1889 25.7C44.0889 25.7 44.9889 25.7 45.8889 25.7C45.8889 25.8 45.7889 25.9 45.6889 25.9C44.6889 27 43.5889 28.2 42.4889 29.3C43.4889 31 44.6889 32.8 45.5889 34.5H41.0889C40.2889 33.3 39.5889 31.9 38.7889 30.7V34.5H34.4889C34.4889 31.7 34.4889 28.6 34.4889 25.7C35.8889 25.7 37.3889 25.7 38.6889 25.7C38.7889 25.7 38.6889 25.9 38.6889 26.1V29.3L38.9889 29.2ZM52.4889 25.7H56.7889C56.7889 28.2 56.7889 30.8 56.7889 33.3C58.1889 33.3 59.6889 33.3 61.0889 33.3V34.5H52.4889C52.4889 31.8 52.4889 28.6 52.4889 25.8V25.7ZM67.3889 25.7H75.7889V26.8H71.6889C71.6889 27.7 71.6889 28.6 71.6889 29.5C72.6889 29.5 73.7889 29.5 74.8889 29.5C74.8889 29.9 74.8889 30.2 74.8889 30.5H71.6889V33.3C72.9889 33.3 74.3889 33.3 75.7889 33.3V34.4H67.3889V25.7ZM92.4889 25.7C91.2889 27.5 89.9889 29.4 88.7889 31.2C88.7889 32.3 88.7889 33.5 88.7889 34.4C87.3889 34.4 85.8889 34.4 84.4889 34.4C84.4889 33.6 84.4889 32.8 84.4889 32C84.4889 31.2 84.4889 31.4 84.4889 31.2C84.4889 31 84.1889 30.7 83.9889 30.5C82.8889 28.9 81.7889 27.2 80.7889 25.6H85.2889C85.9889 26.7 86.5889 27.8 87.1889 28.9C87.8889 27.8 88.4889 26.7 89.0889 25.6C90.1889 25.6 91.2889 25.6 92.3889 25.6L92.4889 25.7Z" fill="black"/>
</svg>
