<svg width="96" height="32" viewBox="0 0 96 32" fill="none" xmlns="http://www.w3.org/2000/svg">
<path d="M23.5 11.1H12.4V14.4H20.3C19.9 19 16.1 21 12.4 21C11.2 21 10.1 20.8 9 20.3C7.9 19.9 7 19.2 6.2 18.4C5.4 17.6 4.7 16.6 4.3 15.5C3.9 14.4 3.7 13.3 3.7 12.1C3.7 7.1 7.6 3.3 12.4 3.3C17.2 3.3 18.3 5.7 18.3 5.7L20.6 3.3C20.6 3.3 17.6 0 12.2 0C6.8 0 0 5.8 0 12.1C0 18.4 5 24.3 12.4 24.3C19.8 24.3 23.6 19.9 23.6 13.3C23.6 6.7 23.4 11.1 23.4 11.1H23.5ZM32.6 8.7C28 8.7 24.8 12.3 24.8 16.4C24.8 20.5 28 24.3 32.7 24.3C37.4 24.3 40.5 21 40.5 16.5C40.5 12 36.4 8.7 32.7 8.7H32.6ZM32.6 11.8C34.8 11.8 37 13.6 37 16.5C37 19.4 34.9 21.2 32.6 21.2C30.3 21.2 28.2 19.2 28.2 16.4C28.2 13.6 30.1 11.7 32.7 11.7L32.6 11.8ZM49.6 8.7C45 8.7 41.8 12.3 41.8 16.4C41.8 20.5 45 24.3 49.7 24.3C54.4 24.3 57.5 21 57.5 16.5C57.5 12 53.4 8.7 49.7 8.7H49.6ZM49.7 11.8C51.9 11.8 54.1 13.6 54.1 16.5C54.1 19.4 52 21.2 49.7 21.2C47.4 21.2 45.3 19.2 45.3 16.4C45.3 13.6 47.2 11.7 49.8 11.7L49.7 11.8ZM66.3 8.7C62.1 8.7 58.8 12.4 58.8 16.5C58.8 20.6 62.6 24.3 66.2 24.3C69.8 24.3 69.6 23.4 70.5 22.4V23.9C70.5 26.6 68.9 28.2 66.4 28.2C63.9 28.2 62.8 26.4 62.4 25.4L59.4 26.6C60.5 28.8 62.6 31.2 66.4 31.2C70.2 31.2 73.7 28.6 73.7 23.1V9.1H70.4V10.4C69.4 9.3 68 8.6 66.2 8.6L66.3 8.7ZM66.6 11.8C68.7 11.8 70.8 13.6 70.8 16.5C70.8 19.4 68.7 21.2 66.6 21.2C64.5 21.2 62.3 19.4 62.3 16.5C62.3 13.6 64.5 11.7 66.7 11.7L66.6 11.8ZM88.4 8.7C84.4 8.7 81.1 11.8 81.1 16.5C81.1 21.2 84.8 24.3 88.7 24.3C92.6 24.3 94 22.5 95.2 20.9L92.5 19.1C91.8 20.2 90.6 21.2 88.7 21.2C86.8 21.2 85.5 20 84.9 18.8L95.4 14.5L94.9 13.2C93.9 10.7 91.5 8.6 88.4 8.6V8.7ZM88.5 11.7C89.9 11.7 90.9 12.5 91.4 13.4L84.4 16.3C84.1 14 86.2 11.7 88.5 11.7ZM76.1 23.9H79.5V0.9H76.1V23.9Z" fill="black"/>
</svg>
