<svg width="51" height="51" viewBox="0 0 51 51" fill="none" xmlns="http://www.w3.org/2000/svg">
<path d="M40.3 25.3C40.3 33.6 33.6 40.3 25.3 40.3V25.3H40.3ZM25.3 10.3V25.3H10.3C10.3 17 17 10.3 25.3 10.3ZM25.3 10.3V11.1C33.1 11.1 39.5 17.5 39.5 25.3H40.3C40.3 17 33.6 10.3 25.3 10.3ZM25.3 39.5C17.5 39.5 11.1 33.1 11.1 25.3H10.3C10.3 33.6 17 40.3 25.3 40.3M25.3 0C11.3 0 0 11.3 0 25.3C0 39.3 11.3 50.6 25.3 50.6C39.3 50.6 50.6 39.3 50.6 25.3C50.6 11.3 39.3 0 25.3 0ZM49 25.3C49 38.4 38.4 49 25.3 49C12.2 49 1.60001 38.4 1.60001 25.3C1.60001 12.2 12.2 1.6 25.3 1.6C38.4 1.6 49 12.2 49 25.3ZM14.5 13.1C15.3 12.3 15.8 11.3 15 10.3C14.6 9.8 13.8 9.7 13.2 9.9C13.2 9.7 13.3 8.9 12.7 8.4C12.4 8.1 12 8 11.6 8.1C10.8 8.1 10.3 8.7 8.7 10.5C8.2 11 7.50001 11.9 7.10001 12.4L11.5 16.5C12.9 14.9 13.5 14.3 14.7 13.1H14.5ZM8.8 12.1C9.7 11 10.6 10.1 11 9.7C11.1 9.6 11.3 9.5 11.5 9.4C11.8 9.4 12.1 9.5 12.2 9.8C12.2 10.1 12.1 10.4 11.9 10.6C11.4 11.1 9.7 12.9 9.7 12.9L8.9 12.1H8.8ZM10.5 13.7C10.5 13.7 12.2 12 12.7 11.4C12.9 11.2 13.1 11 13.2 11C13.4 11 13.6 10.9 13.8 11C14 11.1 14.1 11.3 14 11.5C14 11.7 13.7 12 13.6 12.2C13.4 12.4 11.4 14.5 11.4 14.5L10.5 13.7ZM25.8 8.2L27.2 5.1V9.3C27.8 9.3 28.3 9.4 28.8 9.5L28.6 3.3C27.9 3.3 27.2 3.2 26.5 3.1L25.1 6.5L23.7 3.1C23 3.1 22.3 3.1 21.6 3.3L21.4 9.5C21.9 9.5 22.4 9.4 22.9 9.3V5.1C23 5.1 23 4.8 23 4.8V5.1L24.5 8.2H25.8ZM37.4 14.6C37.7 15 38.2 15.6 38.5 15.9L43.6 12.7C43.3 12.4 42.9 11.9 42.6 11.5L39.4 13.6L40.8 10.8L39.8 9.8L36.9 11.2L39 8C38.6 7.7 38.3 7.4 37.8 7L34.5 12.1C34.9 12.4 35.5 12.9 35.8 13.2L38.9 11.6H39.1C39.1 11.5 39 11.6 39 11.6L37.4 14.6Z" fill="black"/>
</svg>
