<svg width="123" height="26" viewBox="0 0 123 26" fill="none" xmlns="http://www.w3.org/2000/svg">
<path d="M34 4.6C32 1.6 29.4 0 26.7 0C24 0 23.5 0.7 22 2.1C21 3 20 4.1 19.2 5.3C18.1 3.9 17.1 2.9 16.2 2.1C14.4 0.6 12.6 0.1 10.8 0.1C7.7 0.1 5.1 2.1 3.2 5C1.1 8.2 0 12.4 0 16.5C0 20.6 0.399999 20.7 1.3 22.1C2.4 23.9 4.1 25.1 6.9 25.1C9.7 25.1 11 24 13.1 21.3C14.3 19.7 14.9 18.8 17.2 14.5L18.4 12.4C18.4 12.2 18.6 12.1 18.7 11.9C18.7 12.1 18.9 12.2 19 12.4L22.3 18C23.4 19.9 24.9 22 26.1 23.2C27.7 24.7 29.2 25.1 30.9 25.1C33.6 25.1 35.2 23.7 36 22.3C36.8 20.8 37.3 19 37.3 16.4C37.3 12.1 36.2 8 34.1 4.7L34 4.6ZM15.1 11.3C13.9 13.1 12.2 16 10.7 18.1C8.8 20.7 7.9 20.9 6.8 20.9C5.7 20.9 5.2 20.5 4.7 19.7C4.3 19 4 17.9 4 16.5C4 13 5 9.4 6.6 7C7.2 6.1 7.8 5.4 8.5 4.9C9.2 4.4 9.9 4.1 10.7 4.1C12.7 4.1 13.9 5.3 14.9 6.4C15.4 6.9 16 7.8 16.8 8.9L15.2 11.4L15.1 11.3ZM30.8 20.9C29.9 20.9 29.2 20.5 28.2 19.3C27.4 18.4 26.1 16.4 23.8 12.5L22.8 10.9C22.1 9.8 21.5 8.7 20.8 7.8C20.9 7.6 21 7.4 21.1 7.3C22.8 4.7 24.4 3.2 26.3 3.2C28.2 3.2 29.7 4.4 31 6.3C32.8 9 33.6 12.9 33.6 16.3C33.6 19.7 33 20.8 30.7 20.8L30.8 20.9ZM45 0.799999H49.7L57.6 15.3L65.5 0.799999H70.1V24.6H66.3V6.4L59.3 19H55.7L48.7 6.4V24.6H44.9V0.799999H45ZM82 9.7C79.3 9.7 77.6 11.8 77.2 14.3H86.5C86.3 11.7 84.8 9.7 82 9.7ZM73.5 15.7C73.5 10.3 77 6.4 82.1 6.4C87.2 6.4 90.2 10.3 90.2 16V17.1H77.3C77.8 19.9 79.6 21.8 82.6 21.8C85.6 21.8 86.4 21.1 87.8 19.7L89.8 22.2C87.9 24 85.5 25 82.4 25C76.8 25 73.5 20.9 73.5 15.8V15.7ZM94.8 10H91.3V6.9H94.8V1.7H98.5V6.9H103.8V10H98.5V18C98.5 20.7 99.4 21.7 101.5 21.7C103.6 21.7 103 21.7 103.8 21.5V24.6C102.8 24.9 101.8 25 100.8 25C96.8 25 94.9 22.8 94.9 18.4V10H94.8ZM119.2 13C118.5 11.1 116.8 9.7 114.4 9.7C112 9.7 109.3 11.9 109.3 15.6C109.3 19.3 111.1 21.5 114.3 21.5C117.5 21.5 118.5 20 119.2 18.2V12.9V13ZM122.9 24.6H119.3V22.1C118.3 23.6 116.5 25 113.5 25C108.7 25 105.5 21 105.5 15.7C105.5 10.4 108.8 6.4 113.7 6.4C118.6 6.4 118 7.4 119.3 9.1V6.8H122.9V24.5V24.6Z" fill="black"/>
</svg>
