<svg width="138" height="39" viewBox="0 0 138 39" fill="none" xmlns="http://www.w3.org/2000/svg">
<path d="M19 35.7C16.9 36.1 14.8 36.2 12.6 36.5L5.9 16.6V37.3C3.8 37.5 1.9 37.8 0 38.1V0.1H5.5L13.1 21.7V0.1H19V35.7ZM30.4 14C32.7 14 36.1 13.9 38.2 13.9V19.8C35.6 19.8 32.6 19.8 30.4 19.9V28.7C33.8 28.5 37.2 28.2 40.7 28.1V33.8L24.6 35.1V0.1H40.7V6H30.4V14ZM62.4 6H56.4V33.3C54.4 33.3 52.5 33.3 50.6 33.3V5.9H44.6V0H62.5V5.9L62.4 6ZM71.9 13.6H79.9V19.5H71.9V33H66.2V0.1H82.5V6H71.9V13.6ZM91.9 27.8C95.2 27.8 98.6 28.1 101.8 28.3V34.2C96.6 33.9 91.4 33.5 86.1 33.4V0.1H91.9V27.8ZM106.8 34.6C108.7 34.7 110.6 34.8 112.5 35V0.1H106.8V34.6ZM138 0.1L130.6 18.2L138 38.1C135.8 37.8 133.6 37.4 131.4 37L127.2 26L122.9 36.1C120.8 35.7 118.7 35.6 116.6 35.3L124.1 17.9L117.3 0.1H123.6L127.4 10.1L131.5 0.1H137.9H138Z" fill="black"/>
</svg>
