<svg width="83" height="30" viewBox="0 0 83 30" fill="none" xmlns="http://www.w3.org/2000/svg">
<path d="M9.04081 29C6.64081 29 4.64081 28.2 3.04081 27C2.74081 26.8 2.04081 26.1 1.84081 25.8C1.24081 25 0.74081 24.2 0.44081 23.4C-0.45919 20.8 0.0408095 17.3 1.74081 13.5C3.24081 10.3 5.54081 7 9.54081 2.6C10.1408 1.9 11.8408 0 11.8408 0C11.8408 0 11.8408 0.2 11.6408 0.4C10.6408 2.1 9.74081 4.2 9.24081 5.9C8.44081 8.7 8.54081 11.1 9.54081 13C10.2408 14.3 11.3408 15.4 12.6408 16C14.8408 17.1 18.1408 17.2 22.1408 16.3C22.4408 16.3 36.0408 12.7 52.3408 8.3C68.6408 4 82.0408 0.5 82.0408 0.5C82.0408 0.5 44.0408 16.6 24.3408 25C21.2408 26.3 20.3408 26.7 18.9408 27.2C15.1408 28.5 11.8408 29.1 9.14081 29H9.04081Z" fill="black"/>
</svg>
