<svg width="124" height="35" viewBox="0 0 124 35" fill="none" xmlns="http://www.w3.org/2000/svg">
<path d="M20.7 0.2L0 9.8L5.2 29.5L9.1 29L8 16.6L9.3 16L11.5 28.6L18.2 27.8L17 14.1L18.3 13.5L20.8 27.4L27.6 26.6L26.3 11.6L27.6 11L30.3 26.2L37 25.4V4.1L20.7 0V0.2ZM21.2 30.1L21.5 32L36.9 34.6V28.2L21.1 30.1H21.2ZM51.5 26V28.7H54.8C54.8 29.3 54.7 29.8 54.4 30.2C54.1 30.7 53.7 31 53.2 31.3C52.7 31.6 52.1 31.7 51.3 31.7C50.5 31.7 49.8 31.5 49.2 31.1C48.6 30.7 48.2 30.1 47.8 29.4C47.5 28.7 47.3 27.7 47.3 26.7C47.3 25.7 47.5 24.7 47.8 24C48.1 23.3 48.6 22.7 49.2 22.3C49.8 21.9 50.5 21.7 51.3 21.7C52.1 21.7 52.1 21.7 52.4 21.9C52.7 22 53 22.1 53.3 22.3C53.6 22.5 53.8 22.7 54 23C54.2 23.3 54.3 23.6 54.4 23.9H58C57.9 23.1 57.7 22.4 57.3 21.7C56.9 21 56.4 20.5 55.8 20C55.2 19.5 54.5 19.2 53.7 18.9C52.9 18.6 52.1 18.5 51.2 18.5C50.3 18.5 49.2 18.7 48.3 19C47.4 19.4 46.6 19.9 45.9 20.6C45.2 21.3 44.7 22.2 44.3 23.2C43.9 24.2 43.7 25.4 43.7 26.7C43.7 28 44 29.8 44.7 31C45.3 32.2 46.2 33.1 47.4 33.8C48.5 34.5 49.8 34.8 51.3 34.8C52.8 34.8 53.8 34.5 54.9 34C55.9 33.5 56.8 32.7 57.4 31.7C58 30.7 58.3 29.5 58.3 28.1V26.1H51.6L51.5 26ZM96.7 34.6V18.8H107.6V21.7H100.3V25.2H106.2V28.1H100.3V31.6H107.6V34.5H96.7V34.6ZM118.1 23.4C118.1 22.8 117.8 22.3 117.4 22C117 21.7 116.4 21.5 115.6 21.5C114.8 21.5 114.6 21.5 114.3 21.7C113.9 21.8 113.7 22 113.5 22.3C113.3 22.5 113.2 22.8 113.2 23.1C113.2 23.4 113.2 23.6 113.4 23.8C113.5 24 113.7 24.2 113.9 24.3C114.1 24.4 114.4 24.6 114.7 24.7C115 24.8 115.3 24.9 115.7 25L117.1 25.3C117.8 25.5 118.5 25.7 119.1 25.9C119.7 26.2 120.2 26.5 120.6 26.9C121 27.3 121.3 27.7 121.6 28.2C121.8 28.7 121.9 29.3 121.9 29.9C121.9 30.9 121.7 31.7 121.2 32.4C120.7 33.1 120 33.7 119.1 34C118.2 34.4 117.1 34.6 115.8 34.6C114.5 34.6 113.4 34.4 112.4 34C111.4 33.6 110.7 33 110.1 32.2C109.6 31.4 109.3 30.4 109.3 29.2H112.8C112.8 29.7 113 30.2 113.2 30.5C113.5 30.8 113.8 31.1 114.2 31.3C114.6 31.5 115.1 31.6 115.7 31.6C116.3 31.6 116.7 31.6 117.1 31.4C117.5 31.2 117.8 31 118 30.8C118.2 30.5 118.3 30.2 118.3 29.9C118.3 29.6 118.2 29.3 118 29.1C117.8 28.9 117.5 28.7 117.1 28.5C116.7 28.3 116.2 28.2 115.7 28.1L114 27.7C112.6 27.4 111.6 26.9 110.8 26.2C110 25.5 109.6 24.6 109.6 23.4C109.6 22.4 109.9 21.6 110.4 20.9C110.9 20.2 111.6 19.6 112.6 19.2C113.6 18.8 114.6 18.6 115.8 18.6C117 18.6 118 18.8 118.9 19.2C119.8 19.6 120.5 20.2 121 20.9C121.5 21.6 121.7 22.5 121.8 23.4H118.4H118.1ZM94.1 34.6H90.6V22.6H90.2L86.6 34.6H83.1L79.6 22.6H79.1V34.6H75.6V18.8H81.6L84.6 29.4H85L88 18.8H94V34.6H94.1ZM70.1 34.6H73.9L68.6 18.8H63.7L58.4 34.6H62.2L63.2 31.1H69L70 34.6H70.1ZM64.1 28.4L65.8 22.6H66.5L68.2 28.4H64.1ZM122.6 20.4C122.5 20.4 122.4 20.4 122.3 20.4C122.3 20.4 122.1 20.3 122 20.2C122 20.2 121.9 20 121.8 19.9C121.7 19.8 121.8 19.7 121.8 19.6C121.8 19.5 121.8 19.4 121.8 19.3C121.8 19.2 121.9 19.1 122 19C122 19 122.2 18.9 122.3 18.8C122.4 18.8 122.5 18.8 122.6 18.8C122.7 18.8 122.8 18.8 122.9 18.8C122.9 18.8 123.1 18.9 123.2 19C123.2 19 123.3 19.2 123.4 19.3C123.4 19.4 123.4 19.5 123.4 19.6C123.4 19.7 123.4 19.8 123.4 19.9C123.4 20 123.3 20.1 123.2 20.2C123.2 20.2 123 20.3 122.9 20.4C122.8 20.4 122.7 20.4 122.6 20.4ZM122.6 20.2C122.7 20.2 122.8 20.2 122.9 20.2C122.9 20.2 123.1 20.1 123.1 20C123.1 20 123.1 19.8 123.1 19.7C123.1 19.6 123.1 19.5 123.1 19.4C123.1 19.4 123 19.2 122.9 19.2C122.9 19.2 122.7 19.2 122.6 19.2C122.5 19.2 122.4 19.2 122.3 19.2C122.3 19.2 122.1 19.3 122.1 19.4C122.1 19.4 122.1 19.6 122.1 19.7C122.1 19.8 122.1 19.9 122.1 20C122.1 20 122.2 20.2 122.3 20.2C122.3 20.2 122.5 20.2 122.6 20.2ZM122.3 20V19.2H122.7H122.8C122.8 19.2 122.8 19.2 122.8 19.3C122.8 19.4 122.8 19.4 122.8 19.4C122.8 19.4 122.8 19.4 122.7 19.4C122.7 19.4 122.7 19.4 122.6 19.4H122.3V19.2H122.5H122.4V19.8H122.2L122.3 20ZM122.8 19.6L123 20H122.8L122.6 19.6H122.8ZM62.9 0.4H59.3V16.2H62.9V0.4ZM79.9 8.3C79.9 10 79.6 11.5 78.9 12.7C78.2 13.9 77.3 14.8 76.2 15.5C75.1 16.1 73.8 16.5 72.4 16.5C71 16.5 69.7 16.2 68.6 15.5C67.5 14.8 66.6 13.9 65.9 12.7C65.2 11.5 64.9 10 64.9 8.3C64.9 6.6 65.2 5.1 65.9 3.9C66.6 2.7 67.5 1.8 68.6 1.1C69.7 0.5 71 0.1 72.4 0.1C73.8 0.1 75.1 0.4 76.2 1.1C77.3 1.7 78.2 2.7 78.9 3.9C79.6 5.1 79.9 6.6 79.9 8.3ZM76.2 8.3C76.2 7.2 76 6.3 75.7 5.6C75.4 4.9 74.9 4.3 74.4 3.9C73.8 3.5 73.1 3.3 72.4 3.3C71.7 3.3 70.9 3.5 70.4 3.9C69.8 4.3 69.4 4.8 69.1 5.6C68.8 6.3 68.6 7.2 68.6 8.3C68.6 9.4 68.8 10.3 69.1 11C69.4 11.7 69.9 12.3 70.4 12.7C71 13.1 71.7 13.3 72.4 13.3C73.1 13.3 73.9 13.1 74.4 12.7C75 12.3 75.4 11.8 75.7 11C76 10.3 76.2 9.4 76.2 8.3ZM51.7 10.7L53.5 16.2H57.4L55.4 10.3H52.6L52.4 9.8C52.9 9.7 53.8 9.5 54.6 9C55.6 8.3 56.4 7 56.4 5.6C56.4 4.2 56.2 3.7 55.7 2.9C55.2 2.1 54.6 1.5 53.7 1.1C52.8 0.7 51.8 0.5 50.6 0.5H44.2V16.3H47.8V10.8H51.5L51.7 10.7ZM51.7 7.4C51.3 7.6 50.8 7.6 50.2 7.6H48.1V3.2H50.2C50.8 3.2 51.3 3.2 51.7 3.5C52.1 3.7 52.4 3.9 52.6 4.3C52.8 4.6 52.9 5 52.9 5.5C52.9 6 52.8 6.3 52.6 6.7C52.4 7 52.1 7.3 51.7 7.4ZM80.2 0.4V3.3H86.4L86.6 3.8C86.1 3.9 85.2 4.1 84.4 4.6V16.2H87.9V3.3H92V0.4H80.2Z" fill="black"/>
</svg>
